<svg xmlns="http://www.w3.org/2000/svg" fill-rule="evenodd" stroke-linejoin="round" stroke-miterlimit="2" clip-rule="evenodd" viewBox="0 0 32 32"><path d="M1,4l-0,24c-0,0.796 0.316,1.559 0.879,2.121c0.562,0.563 1.325,0.879 2.121,0.879c5.154,0 18.846,0 24,0c0.796,0 1.559,-0.316 2.121,-0.879c0.563,-0.562 0.879,-1.325 0.879,-2.121l-0,-24c0,-0.796 -0.316,-1.559 -0.879,-2.121c-0.562,-0.563 -1.325,-0.879 -2.121,-0.879c-5.154,0 -18.846,0 -24,0c-0.796,-0 -1.559,0.316 -2.121,0.879c-0.563,0.562 -0.879,1.325 -0.879,2.121Zm28,7l0,17c0,0.265 -0.105,0.52 -0.293,0.707c-0.187,0.188 -0.442,0.293 -0.707,0.293l-24,0c-0.265,0 -0.52,-0.105 -0.707,-0.293c-0.188,-0.187 -0.293,-0.442 -0.293,-0.707l-0,-17l26,0Zm0,-2l-26,0l-0,-5c-0,-0.265 0.105,-0.52 0.293,-0.707c0.187,-0.188 0.442,-0.293 0.707,-0.293l24,-0c0.265,-0 0.52,0.105 0.707,0.293c0.188,0.187 0.293,0.442 0.293,0.707l0,5Z"/><circle cx="6" cy="6" r="1"/><circle cx="10" cy="6" r="1"/><circle cx="14" cy="6" r="1"/><path d="M10 17l6 0c.552 0 1-.448 1-1 0-.552-.448-1-1-1l-6 0c-.552 0-1 .448-1 1 0 .552.448 1 1 1zM10 21l12 0c.552 0 1-.448 1-1 0-.552-.448-1-1-1l-12 0c-.552 0-1 .448-1 1 0 .552.448 1 1 1zM10 25l12 0c.552 0 1-.448 1-1 0-.552-.448-1-1-1l-12 0c-.552 0-1 .448-1 1 0 .552.448 1 1 1z"/></svg>