<?xml version="1.0" encoding="UTF-8" standalone="no"?> <svg xmlns="http://www.w3.org/2000/svg" viewBox="0 0 64 48"><defs><style>.cls-1{fill:#35353d;}</style></defs><title>Asset 38</title><g id="Layer_2" data-name="Layer 2"><g id="Layer_1-2" data-name="Layer 1"><path class="cls-1" d="M56,0H8A8,8,0,0,0,0,8V40a8,8,0,0,0,8,8H56a8,8,0,0,0,8-8V8A8,8,0,0,0,56,0Zm2.67,40A2.68,2.68,0,0,1,56,42.67H8A2.68,2.68,0,0,1,5.33,40V8A2.68,2.68,0,0,1,8,5.33H56A2.68,2.68,0,0,1,58.67,8Z"/><rect class="cls-1" x="10.67" y="10.67" width="13.33" height="16"/><rect class="cls-1" x="29.33" y="10.67" width="24" height="5.33"/><rect class="cls-1" x="29.33" y="21.33" width="24" height="5.33"/><rect class="cls-1" x="10.67" y="32" width="42.67" height="5.33"/></g></g></svg>